<?xml version="1.0" encoding="UTF-8" standalone="no"?>
<svg
   xmlns:dc="http://purl.org/dc/elements/1.1/"
   xmlns:cc="http://creativecommons.org/ns#"
   xmlns:rdf="http://www.w3.org/1999/02/22-rdf-syntax-ns#"
   xmlns:svg="http://www.w3.org/2000/svg"
   xmlns="http://www.w3.org/2000/svg"
   xmlns:sodipodi="http://sodipodi.sourceforge.net/DTD/sodipodi-0.dtd"
   xmlns:inkscape="http://www.inkscape.org/namespaces/inkscape"
   viewBox="0 0 1167 1675"
   height="1675"
   width="1167"
   xml:space="preserve"
   id="svg2"
   version="1.1"
   sodipodi:docname="yumi.svg"
   inkscape:version="0.92.2 (5c3e80d, 2017-08-06)"><sodipodi:namedview
     pagecolor="#ffffff"
     bordercolor="#666666"
     borderopacity="1"
     objecttolerance="10"
     gridtolerance="10"
     guidetolerance="10"
     inkscape:pageopacity="0"
     inkscape:pageshadow="2"
     inkscape:window-width="1920"
     inkscape:window-height="1000"
     id="namedview112"
     showgrid="false"
     inkscape:zoom="0.5573222"
     inkscape:cx="463.0086"
     inkscape:cy="902.39428"
     inkscape:window-x="0"
     inkscape:window-y="28"
     inkscape:window-maximized="1"
     inkscape:current-layer="g10" /><metadata
     id="metadata8"><rdf:RDF><cc:Work
         rdf:about=""><dc:format>image/svg+xml</dc:format><dc:type
           rdf:resource="http://purl.org/dc/dcmitype/StillImage" /><dc:title></dc:title></cc:Work></rdf:RDF></metadata><defs
     id="defs6"><clipPath
       id="clipPath18"
       clipPathUnits="userSpaceOnUse"><path
         id="path16"
         d="M 0,2500 H 2500 V 0 H 0 Z"
         inkscape:connector-curvature="0" /></clipPath><clipPath
       id="clipPath30"
       clipPathUnits="userSpaceOnUse"><path
         id="path28"
         d="M 0,2500 H 2500 V 0 H 0 Z"
         inkscape:connector-curvature="0" /></clipPath><clipPath
       id="clipPath42"
       clipPathUnits="userSpaceOnUse"><path
         id="path40"
         d="M 0,2500 H 2500 V 0 H 0 Z"
         inkscape:connector-curvature="0" /></clipPath><clipPath
       id="clipPath54"
       clipPathUnits="userSpaceOnUse"><path
         id="path52"
         d="M 0,2500 H 2500 V 0 H 0 Z"
         inkscape:connector-curvature="0" /></clipPath><clipPath
       id="clipPath66"
       clipPathUnits="userSpaceOnUse"><path
         id="path64"
         d="M 0,2500 H 2500 V 0 H 0 Z"
         inkscape:connector-curvature="0" /></clipPath><clipPath
       id="clipPath78"
       clipPathUnits="userSpaceOnUse"><path
         id="path76"
         d="M 0,2500 H 2500 V 0 H 0 Z"
         inkscape:connector-curvature="0" /></clipPath><clipPath
       id="clipPath90"
       clipPathUnits="userSpaceOnUse"><path
         id="path88"
         d="M 0,2500 H 2500 V 0 H 0 Z"
         inkscape:connector-curvature="0" /></clipPath><clipPath
       id="clipPath102"
       clipPathUnits="userSpaceOnUse"><path
         id="path100"
         d="M 0,2500 H 2500 V 0 H 0 Z"
         inkscape:connector-curvature="0" /></clipPath><clipPath
       id="clipPath114"
       clipPathUnits="userSpaceOnUse"><path
         id="path112"
         d="M 0,2500 H 2500 V 0 H 0 Z"
         inkscape:connector-curvature="0" /></clipPath><clipPath
       id="clipPath126"
       clipPathUnits="userSpaceOnUse"><path
         id="path124"
         d="M 0,2500 H 2500 V 0 H 0 Z"
         inkscape:connector-curvature="0" /></clipPath><clipPath
       id="clipPath138"
       clipPathUnits="userSpaceOnUse"><path
         id="path136"
         d="M 0,2500 H 2500 V 0 H 0 Z"
         inkscape:connector-curvature="0" /></clipPath><clipPath
       id="clipPath162"
       clipPathUnits="userSpaceOnUse"><path
         id="path160"
         d="M 0,2500 H 2500 V 0 H 0 Z"
         inkscape:connector-curvature="0" /></clipPath><clipPath
       id="clipPath174"
       clipPathUnits="userSpaceOnUse"><path
         id="path172"
         d="M 0,2500 H 2500 V 0 H 0 Z"
         inkscape:connector-curvature="0" /></clipPath><clipPath
       id="clipPath186"
       clipPathUnits="userSpaceOnUse"><path
         id="path184"
         d="M 0,2500 H 2500 V 0 H 0 Z"
         inkscape:connector-curvature="0" /></clipPath><clipPath
       id="clipPath198"
       clipPathUnits="userSpaceOnUse"><path
         id="path196"
         d="M 0,2500 H 2500 V 0 H 0 Z"
         inkscape:connector-curvature="0" /></clipPath></defs><g
     transform="matrix(1.3333333,0,0,-1.3333333,-1131.3965,2503.8614)"
     id="g10"><g
       id="g12"><g
         clip-path="url(#clipPath18)"
         id="g14"><g
           transform="translate(1552.1523,1305.5713)"
           id="g20"><path
             id="path22"
             style="fill:#f15a24;fill-opacity:1;fill-rule:nonzero;stroke:none"
             d="M 0,0 C 0,0 -103.01,35.324 -264.107,34.934 -425.203,35.324 -528.123,0 -528.123,0 -568.682,-685.026 -304.072,-685.924 -264.15,-682.204 -224.207,-685.924 40.559,-685.026 0,0"
             inkscape:connector-curvature="0" /></g></g></g><g
       id="g24"><g
         clip-path="url(#clipPath30)"
         id="g26"><g
           transform="translate(1552.1523,1304.6353)"
           id="g32"><path
             id="path34"
             style="fill:#db481b;fill-opacity:1;fill-rule:nonzero;stroke:none"
             d="m 0,0 c 0,0 -103.01,35.365 -264.107,35.365 h -0.045 v -718 h 0.002 C -224.207,-685.635 40.559,-685.027 0,0"
             inkscape:connector-curvature="0" /></g></g></g><g
       id="g36"><g
         clip-path="url(#clipPath42)"
         id="g38"><g
           transform="translate(1530.625,1847)"
           id="g44"><path
             id="path46"
             style="fill:#f15a24;fill-opacity:1;fill-rule:nonzero;stroke:none"
             d="m 0,0 c 0,0 -49.625,28 -243.625,30 -194,-2 -243.713,-30 -243.713,-30 -107.175,-50.397 -128.563,-154.918 -130.003,-224 1.44,-69.082 22.828,-173.603 130.003,-224 0,0 49.713,-28 243.713,-30 194,2 243.625,30 243.625,30 107.175,50.397 128.526,154.918 129.94,224 C 128.526,-154.918 107.175,-50.397 0,0"
             inkscape:connector-curvature="0" /></g></g></g><g
       id="g48"><g
         clip-path="url(#clipPath54)"
         id="g50"><g
           transform="translate(1531.625,1848)"
           id="g56"><path
             id="path58"
             style="fill:#db481b;fill-opacity:1;fill-rule:nonzero;stroke:none"
             d="m 0,0 c 0,0 -49.625,28 -243.625,30 v -508 c 194,2 243.625,30 243.625,30 107.175,50.397 128.526,154.918 129.94,224 C 128.526,-154.918 107.175,-50.397 0,0"
             inkscape:connector-curvature="0" /></g></g></g><g
       id="g60"><g
         clip-path="url(#clipPath66)"
         id="g62"><g
           transform="translate(921.5,1706)"
           id="g68"><path
             id="path70"
             style="fill:#f15a24;fill-opacity:1;fill-rule:nonzero;stroke:none"
             d="m 0,0 c 0,0 -24,-57 -6,-148 0,0 -49.5,4 -50,12 0,0 -31.5,49 0,123 0,0 3.5,6 56,13"
             inkscape:connector-curvature="0" /></g></g></g><g
       id="g72"><g
         clip-path="url(#clipPath78)"
         id="g74"><g
           transform="translate(1653.5,1706)"
           id="g80"><path
             id="path82"
             style="fill:#db481b;fill-opacity:1;fill-rule:nonzero;stroke:none"
             d="m 0,0 c 0,0 24,-57 6,-148 0,0 49.5,4 50,12 0,0 31.5,49 0,123 0,0 -3.5,6 -56,13"
             inkscape:connector-curvature="0" /></g></g></g><g
       id="g84"><g
         clip-path="url(#clipPath90)"
         id="g86"><g
           transform="translate(1554.9258,1692)"
           id="g92"><path
             id="path94"
             style="fill:#333333;fill-opacity:1;fill-rule:nonzero;stroke:none"
             d="m 0,0 c 11.785,-23.893 15.505,-48.548 15.999,-68.5 -1.075,-43.38 -17.305,-109.014 -98.767,-140.662 0,0 -37.718,-17.582 -185.175,-18.838 -147.458,1.256 -185.244,18.838 -185.244,18.838 -81.462,31.648 -97.719,97.282 -98.814,140.662 0.503,19.951 4.228,44.606 16.016,68.5 z"
             inkscape:connector-curvature="0" /></g></g></g><g
       id="g96"><g
         clip-path="url(#clipPath102)"
         id="g98"><g
           transform="translate(1555.002,1556)"
           id="g104"><path
             id="path106"
             style="fill:#333333;fill-opacity:1;fill-rule:nonzero;stroke:none"
             d="m 0,0 c 11.784,23.893 15.504,48.548 15.998,68.5 -1.074,43.38 -17.305,109.014 -98.767,140.662 0,0 -37.718,17.582 -185.175,18.838 -147.458,-1.256 -185.244,-18.838 -185.244,-18.838 -81.462,-31.648 -97.719,-97.282 -98.814,-140.662 0.503,-19.951 4.228,-44.606 16.017,-68.5 z"
             inkscape:connector-curvature="0" /></g></g></g><g
       id="g108"><g
         clip-path="url(#clipPath114)"
         id="g110"><g
           transform="translate(1101.8135,1737.291)"
           id="g116"><path
             id="path118"
             style="fill:#1a1a1a;fill-opacity:1;fill-rule:nonzero;stroke:none"
             d="M 0,0 C 0,0 37.787,16.995 185.244,18.209 332.701,16.995 370.42,0 370.42,0 c 74.382,-27.931 94.374,-83.248 98.106,-124.572 0.356,4.069 0.567,8.01 0.661,11.781 -1.075,43.38 -17.305,109.014 -98.767,140.662 0,0 -37.719,17.582 -185.176,18.838 C 37.787,45.453 0,27.871 0,27.871 -81.462,-3.777 -97.719,-69.411 -98.813,-112.791 c 0.095,-3.771 0.308,-7.712 0.665,-11.781 C -94.397,-83.248 -74.382,-27.931 0,0"
             inkscape:connector-curvature="0" /></g></g></g><g
       id="g120"><g
         clip-path="url(#clipPath126)"
         id="g122"><g
           transform="translate(1472.2334,1765.1616)"
           id="g128"><path
             id="path130"
             style="fill:#1a1a1a;fill-opacity:1;fill-rule:nonzero;stroke:none"
             d="m 0,0 c 0,0 -37.719,17.583 -185.176,18.838 -0.019,0 -0.038,0 -0.057,0 v -319 h 0.057 c 147.457,1 185.176,18.839 185.176,18.839 81.462,31.647 97.692,97.281 98.767,140.661 C 97.692,-97.282 81.462,-31.647 0,0"
             inkscape:connector-curvature="0" /></g></g></g><g
       id="g132"><g
         clip-path="url(#clipPath138)"
         id="g134"><g
           transform="translate(1187.3335,1626)"
           id="g140"><path
             id="path142"
             style="fill:#f2f2f2;fill-opacity:1;fill-rule:nonzero;stroke:none"
             d="m 0,0 c 0,-25.773 -20.894,-46.667 -46.667,-46.667 -25.773,0 -46.666,20.894 -46.666,46.667 0,25.773 20.893,46.667 46.666,46.667 C -20.894,46.667 0,25.773 0,0"
             inkscape:connector-curvature="0" /></g><g
           transform="translate(1482.333,1626)"
           id="g144"><path
             id="path146"
             style="fill:#f2f2f2;fill-opacity:1;fill-rule:nonzero;stroke:none"
             d="m 0,0 c 0,-25.773 -20.893,-46.667 -46.666,-46.667 -25.773,0 -46.667,20.894 -46.667,46.667 0,25.773 20.894,46.667 46.667,46.667 C -20.893,46.667 0,25.773 0,0"
             inkscape:connector-curvature="0" /></g><g
           transform="translate(1229.8413,1570)"
           id="g148"><path
             id="path150"
             style="fill:#f2f2f2;fill-opacity:1;fill-rule:nonzero;stroke:none"
             d="m 0,0 c 7.004,-29.402 30.232,-51 57.826,-51 27.593,0 50.821,21.598 57.825,51 z"
             inkscape:connector-curvature="0" /></g><g
           transform="translate(1425.9717,1245.6855)"
           id="g152"><path
             id="path154"
             style="fill:#db481b;fill-opacity:1;fill-rule:nonzero;stroke:none"
             d="m 0,0 c -13.718,-18.071 -32.467,-29.909 -52.425,-34.894 25.706,-27.072 57.766,-55.744 94.218,-83.414 109.488,-83.109 217.071,-125.682 240.292,-95.09 23.221,30.59 -46.713,122.763 -156.201,205.872 C 89.158,20.351 52.653,43.657 19.469,61.182 20.346,40.214 14.008,18.455 0,0"
             inkscape:connector-curvature="0" /></g></g></g><g
       id="g156"><g
         clip-path="url(#clipPath162)"
         id="g158"><g
           transform="translate(1135.0835,1245.6855)"
           id="g164"><path
             id="path166"
             style="fill:#f15a24;fill-opacity:1;fill-rule:nonzero;stroke:none"
             d="m 0,0 c 13.717,-18.071 32.466,-29.909 52.424,-34.894 -25.706,-27.072 -57.765,-55.744 -94.218,-83.414 -109.488,-83.109 -217.07,-125.682 -240.291,-95.09 -23.221,30.59 46.712,122.763 156.201,205.872 36.725,27.877 73.23,51.183 106.415,68.708 C -20.347,40.214 -14.008,18.455 0,0"
             inkscape:connector-curvature="0" /></g></g></g><g
       id="g168"><g
         clip-path="url(#clipPath174)"
         id="g170"><g
           transform="translate(1234.6665,1176)"
           id="g176"><path
             id="path178"
             style="fill:#333333;fill-opacity:1;fill-rule:nonzero;stroke:none"
             d="m 0,0 c 0,-28.719 -23.281,-52 -52,-52 -28.719,0 -52,23.281 -52,52 0,28.719 23.281,52 52,52 C -23.281,52 0,28.719 0,0"
             inkscape:connector-curvature="0" /></g></g></g><g
       id="g180"><g
         clip-path="url(#clipPath186)"
         id="g182"><g
           transform="translate(1177.667,1217)"
           id="g188"><path
             id="path190"
             style="fill:#1a1a1a;fill-opacity:1;fill-rule:nonzero;stroke:none"
             d="M 0,0 C 28.719,0 52,-23.281 52,-52 52,-57.538 51.126,-62.869 49.522,-67.875 54.267,-60.032 57,-50.836 57,-41 57,-12.281 33.719,11 5,11 -18.181,11 -37.811,-4.172 -44.523,-25.125 -35.414,-10.066 -18.883,0 0,0"
             inkscape:connector-curvature="0" /></g></g></g><g
       id="g192"><g
         clip-path="url(#clipPath198)"
         id="g194"><g
           transform="translate(1168.0864,1195.4727)"
           id="g200"><path
             id="path202"
             style="fill:#ffffff;fill-opacity:1;fill-rule:nonzero;stroke:none"
             d="m 0,0 c 1.417,-2.373 2.805,-4.698 4.189,-7.018 -9.654,-6.835 -9.584,-21.162 0.015,-28.136 -1.394,-2.342 -2.794,-4.693 -4.23,-7.105 -0.296,0.163 -0.548,0.27 -0.764,0.426 -4.666,3.399 -7.866,7.848 -9.582,13.366 -0.193,0.621 -0.181,1.056 0.338,1.583 3.279,3.33 3.243,8.254 0.018,11.623 -0.273,0.285 -0.487,0.878 -0.387,1.232 1.619,5.716 4.92,10.262 9.723,13.735 0.114,0.083 0.236,0.155 0.361,0.22 C -0.259,-0.043 -0.184,-0.041 0,0"
             inkscape:connector-curvature="0" /></g><g
           transform="translate(1207.5605,1172.8574)"
           id="g204"><path
             id="path206"
             style="fill:#ffffff;fill-opacity:1;fill-rule:nonzero;stroke:none"
             d="m 0,0 c -0.413,-5.444 -2.164,-10.053 -5.317,-14.13 -0.13,-0.167 -0.281,-0.319 -0.397,-0.495 -0.928,-1.414 -1.929,-2.036 -3.875,-1.632 -3.798,0.789 -7.699,-1.967 -8.79,-5.834 -0.217,-0.766 -0.561,-1.076 -1.312,-1.238 -5.484,-1.184 -10.803,-0.735 -15.961,1.495 -0.258,0.111 -0.513,0.234 -0.762,0.366 -0.087,0.046 -0.152,0.134 -0.282,0.253 1.335,2.392 2.671,4.785 4.03,7.22 2.329,-1.013 4.669,-1.568 7.143,-1.564 8.555,0.015 15.654,6.045 16.96,14.5 0.132,0.852 0.415,1.098 1.256,1.079 C -4.918,-0.036 -2.528,0 0,0"
             inkscape:connector-curvature="0" /></g><g
           transform="translate(1207.4907,1175.9609)"
           id="g208"><path
             id="path210"
             style="fill:#ffffff;fill-opacity:1;fill-rule:nonzero;stroke:none"
             d="m 0,0 h -8.295 c -0.734,5.688 -3.457,10.247 -8.526,13.185 -5.05,2.925 -10.325,3.005 -15.783,0.751 -1.344,2.405 -2.679,4.794 -4.064,7.272 0.371,0.191 0.667,0.366 0.98,0.503 5.254,2.279 10.67,2.771 16.256,1.495 0.632,-0.144 0.911,-0.433 1.087,-1.07 1.234,-4.449 5.598,-6.941 10.064,-5.754 0.594,0.157 0.94,0.07 1.365,-0.381 3.99,-4.236 6.26,-9.253 6.912,-15.018 C 0.027,0.712 0,0.435 0,0"
             inkscape:connector-curvature="0" /></g><g
           transform="translate(1202.9321,1148.4443)"
           id="g212"><path
             id="path214"
             style="fill:#ffffff;fill-opacity:1;fill-rule:nonzero;stroke:none"
             d="m 0,0 c -0.059,-3.244 -2.703,-5.857 -5.904,-5.836 -3.251,0.022 -5.92,2.748 -5.865,5.991 0.057,3.29 2.73,5.873 6.019,5.815 C -2.536,5.912 0.058,3.219 0,0"
             inkscape:connector-curvature="0" /></g><g
           transform="translate(1152.2441,1180.2471)"
           id="g216"><path
             id="path218"
             style="fill:#ffffff;fill-opacity:1;fill-rule:nonzero;stroke:none"
             d="m 0,0 c 3.295,0.016 5.937,-2.612 5.924,-5.894 -0.011,-3.237 -2.611,-5.845 -5.849,-5.87 -3.269,-0.024 -5.934,2.631 -5.922,5.902 C -5.836,-2.616 -3.242,-0.016 0,0"
             inkscape:connector-curvature="0" /></g><g
           transform="translate(1191.1616,1200.3154)"
           id="g220"><path
             id="path222"
             style="fill:#ffffff;fill-opacity:1;fill-rule:nonzero;stroke:none"
             d="M 0,0 C 0.068,3.249 2.706,5.817 5.937,5.782 9.237,5.745 11.831,3.087 11.771,-0.199 11.712,-3.469 8.976,-6.098 5.737,-5.995 2.504,-5.893 -0.067,-3.206 0,0"
             inkscape:connector-curvature="0" /></g></g></g></g></svg>